<svg width="24" height="24" viewBox="0 0 24 24" fill="none" xmlns="http://www.w3.org/2000/svg">
<path fill-rule="evenodd" clip-rule="evenodd" d="M12 21C16.9706 21 21 16.9706 21 12C21 7.02944 16.9706 3 12 3C7.02944 3 3 7.02944 3 12C3 16.9706 7.02944 21 12 21ZM15.4071 8.59289C15.7976 8.98342 15.7976 9.61658 15.4071 10.0071L13.4142 12L15.4071 13.9929C15.7976 14.3834 15.7976 15.0166 15.4071 15.4071C15.0166 15.7976 14.3834 15.7976 13.9929 15.4071L12 13.4142L10.0071 15.4071C9.61658 15.7976 8.98342 15.7976 8.59289 15.4071C8.20237 15.0166 8.20237 14.3834 8.59289 13.9929L10.5858 12L8.59289 10.0071C8.20237 9.61658 8.20237 8.98342 8.59289 8.59289C8.98342 8.20237 9.61658 8.20237 10.0071 8.59289L12 10.5858L13.9929 8.59289C14.3834 8.20237 15.0166 8.20237 15.4071 8.59289Z" fill="#1A1A1A"/>
</svg>
